<?xml version="1.0" standalone="no"?>
<!DOCTYPE svg PUBLIC "-//W3C//DTD SVG 20010904//EN"
 "http://www.w3.org/TR/2001/REC-SVG-20010904/DTD/svg10.dtd">
<svg version="1.0" xmlns="http://www.w3.org/2000/svg"
 width="1000.000000pt" height="1000.000000pt" viewBox="0 0 1000.000000 1000.000000"
 preserveAspectRatio="xMidYMid meet">
<metadata>
Created by potrace 1.14, written by Peter Selinger 2001-2017
</metadata>
<g transform="translate(0.000000,1000.000000) scale(0.100000,-0.100000)"
fill="#000000" stroke="none">
<path d="M1605 9343 c-114 -10 -260 -36 -323 -57 -340 -116 -550 -374 -609
-750 -17 -104 -18 -311 -18 -3536 0 -3225 1 -3432 18 -3536 70 -444 347 -721
791 -791 104 -17 311 -18 3536 -18 3225 0 3432 1 3536 18 444 70 721 347 791
791 17 104 18 311 18 3536 0 3225 -1 3432 -18 3536 -69 438 -340 713 -777 791
-88 16 -348 17 -3500 18 -1873 1 -3423 0 -3445 -2z m2183 -1432 l281 -254 -62
-70 c-573 -640 -890 -1174 -1028 -1732 -72 -293 -94 -495 -93 -870 0 -304 7
-406 46 -645 99 -618 389 -1151 999 -1841 l138 -156 -290 -262 -290 -262 -72
63 c-123 107 -489 477 -596 603 -397 465 -645 905 -800 1421 -209 695 -199
1574 25 2269 182 563 506 1075 1004 1589 181 186 432 416 446 408 6 -4 137
-121 292 -261z m2876 130 c500 -455 884 -948 1111 -1426 218 -457 320 -880
345 -1422 43 -948 -203 -1752 -761 -2483 -185 -242 -501 -581 -755 -808 l-92
-82 -290 261 -291 262 113 126 c630 708 923 1241 1025 1866 39 241 46 334 45
665 0 346 -8 442 -60 712 -117 606 -426 1162 -1015 1824 l-108 120 286 258
c157 141 291 256 299 254 7 -2 74 -59 148 -127z"/>
</g>
</svg>
